<svg width="136" height="43" fill="none" xmlns="http://www.w3.org/2000/svg"><path fill-rule="evenodd" clip-rule="evenodd" d="m39.167 30.035.211.526c.548 1.592.717 3.099.38 4.605-.464 3.185-2.53 5.94-5.483 7.145-1.054.474-2.235.689-3.416.689-.337 0-.759-.043-1.096-.086-1.392-.172-2.826-.646-4.218-1.464-1.687-.99-3.374-2.41-5.229-4.476-1.856 2.066-3.5 3.486-5.23 4.476-1.39.818-2.825 1.292-4.217 1.464A9.406 9.406 0 0 1 9.772 43a8.513 8.513 0 0 1-3.416-.689c-2.91-1.205-5.018-3.917-5.482-7.145-.21-1.55-.042-3.056.506-4.648.211-.56.422-1.077.633-1.55.159-.364.317-.718.47-1.063.175-.39.343-.767.5-1.132l.042-.086c2.91-6.457 6.073-13 9.32-19.456l.126-.258c.324-.618.646-1.275.97-1.934l.043-.09c.421-.774.885-1.592 1.518-2.366C16.394.947 18.292 0 20.4 0c2.067 0 4.007.947 5.356 2.669.625.717 1.033 1.47 1.424 2.193l.094.174.046.093c.323.658.645 1.314.966 1.93l.127.258a453.888 453.888 0 0 1 9.32 19.456l.042.043c.158.366.326.743.5 1.133.154.345.312.699.47 1.062.141.316.282.67.422 1.024zm32.77-19.231c0 1.55-1.224 2.798-2.743 2.798-1.518 0-2.74-1.249-2.74-2.798 0-1.55 1.18-2.798 2.74-2.798a2.792 2.792 0 0 1 2.742 2.798zm-11.304 5.638v.69s-1.307-1.723-4.09-1.723c-4.597 0-8.182 3.573-8.182 8.523 0 4.907 3.542 8.522 8.182 8.522 2.825 0 4.09-1.764 4.09-1.764v.731c0 .345.253.603.591.603h3.416V15.84h-3.416c-.338 0-.59.301-.59.602zm-3.416 12.139c1.52 0 2.784-.818 3.416-1.765v-5.768c-.59-.904-1.94-1.765-3.416-1.765-2.699 0-4.765 1.722-4.765 4.649s2.066 4.649 4.765 4.649zM67.17 15.84h4.05v16.184h-4.05V15.84zm56.386 1.291s1.307-1.722 4.091-1.722c4.554 0 8.139 3.616 8.139 8.523s-3.585 8.522-8.182 8.522c-2.783 0-4.09-1.764-4.09-1.764v.731c0 .302-.253.603-.591.603h-3.416V8.049h4.049v9.082zm3.416 11.407c-1.561 0-2.784-.818-3.416-1.765v-5.768c.632-.86 1.982-1.765 3.416-1.765 2.699 0 4.765 1.722 4.765 4.649s-2.066 4.649-4.765 4.649zm-9.574 3.53v-9.643c0-2.711-.548-4.26-1.982-5.466-1.181-1.033-2.657-1.55-4.428-1.55-1.56 0-3.121.474-4.302 1.722v-.689c0-.3-.253-.602-.59-.602h-3.205v16.184h4.049V20.747c.801-.947 2.066-1.593 3.289-1.593 2.277 0 3.121 1.076 3.121 3.745v9.168h4.048zm-24.333-16.66c-2.784 0-4.09 1.722-4.09 1.722V8.05h-4.05v23.975h3.416c.338 0 .591-.301.591-.603v-.731s1.307 1.764 4.09 1.764c4.597 0 8.182-3.615 8.182-8.522.042-4.907-3.543-8.523-8.139-8.523zm-4.09 11.364c.631.947 1.854 1.765 3.415 1.765 2.7 0 4.765-1.722 4.765-4.65 0-2.926-2.066-4.648-4.765-4.648-1.434 0-2.784.904-3.416 1.765v5.768zm-7.55-11.364c1.223 0 1.855.216 1.855.216v3.83s-3.374-1.162-5.482 1.292v11.32H73.75V15.84h3.416c.338 0 .591.301.591.602v.69c.76-.905 2.404-1.723 3.67-1.723zM20.358 32.8c-2.277-2.927-3.754-5.682-4.26-8.006-.21-.99-.253-1.851-.126-2.626a4.216 4.216 0 0 1 .675-1.808c.801-1.162 2.15-1.894 3.711-1.894 1.56 0 2.952.69 3.711 1.894.338.517.591 1.12.675 1.808.126.775.084 1.679-.127 2.626-.506 2.281-1.982 5.036-4.259 8.006zm12.99 7.059c2.066-.861 3.542-2.798 3.837-5.036.17-1.12.042-2.195-.295-3.315a8.417 8.417 0 0 0-.354-.917c-.063-.147-.128-.3-.194-.46-.17-.346-.329-.715-.488-1.083a25.214 25.214 0 0 0-.482-1.069v-.043a576.463 576.463 0 0 0-9.236-19.37l-.127-.258a87.651 87.651 0 0 1-.506-.99 75.72 75.72 0 0 0-.506-.99c-.337-.688-.717-1.334-1.18-1.894-.887-1.033-2.067-1.592-3.375-1.592-1.307 0-2.488.56-3.374 1.592-.464.56-.843 1.206-1.18 1.894a79.98 79.98 0 0 0-.506.99c-.169.334-.338.667-.507.99l-.126.259a475.135 475.135 0 0 0-9.278 19.326l-.042.086a86.239 86.239 0 0 0-.97 2.152c-.064.158-.129.308-.19.453-.142.327-.27.626-.359.925a7.266 7.266 0 0 0-.379 3.357c.295 2.238 1.771 4.175 3.838 5.036a6.62 6.62 0 0 0 3.205.43c1.054-.129 2.108-.473 3.205-1.119 1.518-.86 3.08-2.195 4.808-4.175-2.742-3.486-4.47-6.715-5.103-9.555a9.1 9.1 0 0 1-.21-3.66 7.062 7.062 0 0 1 1.137-2.926c1.308-1.894 3.501-3.056 5.947-3.056s4.64 1.119 5.946 3.056c.591.86.97 1.85 1.14 2.927a11 11 0 0 1-.212 3.659c-.632 2.84-2.319 6.026-5.103 9.512 1.771 1.98 3.29 3.314 4.808 4.175 1.096.646 2.151.99 3.205 1.12 1.097.128 2.193 0 3.205-.431z" fill="#fff"/></svg>