<svg width="137" height="44" viewBox="0 0 137 44" fill="none" xmlns="http://www.w3.org/2000/svg">
<g clip-path="url(#clip0_1_54)">
<path fill-rule="evenodd" clip-rule="evenodd" d="M39.667 30.8319L39.878 31.3579C40.426 32.9499 40.595 34.4569 40.258 35.9629C39.794 39.1479 37.728 41.9029 34.775 43.1079C33.721 43.5819 32.54 43.7969 31.359 43.7969C31.022 43.7969 30.6 43.7539 30.263 43.7109C28.871 43.5389 27.437 43.0649 26.045 42.2469C24.358 41.2569 22.671 39.8369 20.816 37.7709C18.96 39.8369 17.316 41.2569 15.586 42.2469C14.196 43.0649 12.761 43.5389 11.369 43.7109C11.0053 43.7609 10.639 43.7896 10.272 43.7969C9.09801 43.8052 7.93498 43.5706 6.856 43.1079C3.946 41.9029 1.838 39.1909 1.374 35.9629C1.164 34.4129 1.332 32.9069 1.88 31.3149C2.091 30.7549 2.302 30.2379 2.513 29.7649C2.672 29.4009 2.83 29.0469 2.983 28.7019C3.158 28.3119 3.326 27.9349 3.483 27.5699L3.525 27.4839C6.435 21.0269 9.598 14.4839 12.845 8.02787L12.971 7.76988C13.295 7.15188 13.617 6.49487 13.941 5.83588L13.984 5.74587C14.405 4.97187 14.869 4.15387 15.502 3.37987C16.894 1.74387 18.792 0.796875 20.9 0.796875C22.967 0.796875 24.907 1.74387 26.256 3.46587C26.881 4.18287 27.289 4.93587 27.68 5.65887L27.774 5.83287L27.82 5.92588C28.143 6.58388 28.465 7.23987 28.786 7.85588L28.913 8.11387C32.1734 14.5245 35.2809 21.0116 38.233 27.5699L38.275 27.6129C38.433 27.9789 38.601 28.3559 38.775 28.7459C38.929 29.0909 39.087 29.4449 39.245 29.8079C39.386 30.1239 39.527 30.4779 39.667 30.8319ZM72.437 11.6009C72.437 13.1509 71.213 14.3989 69.694 14.3989C68.176 14.3989 66.954 13.1499 66.954 11.6009C66.954 10.0509 68.134 8.80287 69.694 8.80287C70.4268 8.816 71.1251 9.11676 71.6381 9.64024C72.1511 10.1637 72.4387 10.8679 72.437 11.6009ZM61.133 17.2389V17.9289C61.133 17.9289 59.826 16.2059 57.043 16.2059C52.446 16.2059 48.861 19.7789 48.861 24.7289C48.861 29.6359 52.403 33.2509 57.043 33.2509C59.868 33.2509 61.133 31.4869 61.133 31.4869V32.2179C61.133 32.5629 61.386 32.8209 61.724 32.8209H65.14V16.6369H61.724C61.386 16.6369 61.133 16.9379 61.133 17.2389ZM57.717 29.3779C59.237 29.3779 60.501 28.5599 61.133 27.6129V21.8449C60.543 20.9409 59.193 20.0799 57.717 20.0799C55.018 20.0799 52.952 21.8019 52.952 24.7289C52.952 27.6559 55.018 29.3779 57.717 29.3779ZM67.67 16.6369H71.72V32.8209H67.67V16.6369ZM124.056 17.9279C124.056 17.9279 125.363 16.2059 128.147 16.2059C132.701 16.2059 136.286 19.8219 136.286 24.7289C136.286 29.6359 132.701 33.2509 128.104 33.2509C125.321 33.2509 124.014 31.4869 124.014 31.4869V32.2179C124.014 32.5199 123.761 32.8209 123.423 32.8209H120.007V8.84587H124.056V17.9279ZM127.472 29.3349C125.911 29.3349 124.688 28.5169 124.056 27.5699V21.8019C124.688 20.9419 126.038 20.0369 127.472 20.0369C130.171 20.0369 132.237 21.7589 132.237 24.6859C132.237 27.6129 130.171 29.3349 127.472 29.3349ZM117.898 32.8649V23.2219C117.898 20.5109 117.35 18.9619 115.916 17.7559C114.735 16.7229 113.259 16.2059 111.488 16.2059C109.928 16.2059 108.367 16.6799 107.186 17.9279V17.2389C107.186 16.9389 106.933 16.6369 106.596 16.6369H103.391V32.8209H107.44V21.5439C108.241 20.5969 109.506 19.9509 110.729 19.9509C113.006 19.9509 113.85 21.0269 113.85 23.6959V32.8639L117.898 32.8649ZM93.565 16.2049C90.781 16.2049 89.475 17.9269 89.475 17.9269V8.84688H85.425V32.8219H88.841C89.179 32.8219 89.432 32.5209 89.432 32.2189V31.4879C89.432 31.4879 90.739 33.2519 93.522 33.2519C98.119 33.2519 101.704 29.6369 101.704 24.7299C101.746 19.8229 98.161 16.2069 93.565 16.2069V16.2049ZM89.475 27.5689C90.106 28.5159 91.329 29.3339 92.89 29.3339C95.59 29.3339 97.655 27.6119 97.655 24.6839C97.655 21.7579 95.589 20.0359 92.89 20.0359C91.456 20.0359 90.106 20.9399 89.474 21.8009L89.475 27.5689ZM81.925 16.2049C83.148 16.2049 83.78 16.4209 83.78 16.4209V20.2509C83.78 20.2509 80.406 19.0889 78.298 21.5429V32.8629H74.25V16.6369H77.666C78.004 16.6369 78.257 16.9379 78.257 17.2389V17.9289C79.017 17.0239 80.661 16.2059 81.927 16.2059L81.925 16.2049ZM20.858 33.5969C18.581 30.6699 17.104 27.9149 16.598 25.5909C16.388 24.6009 16.345 23.7399 16.472 22.9649C16.5542 22.3181 16.7852 21.6992 17.147 21.1569C17.948 19.9949 19.297 19.2629 20.858 19.2629C22.418 19.2629 23.81 19.9529 24.569 21.1569C24.907 21.6739 25.16 22.2769 25.244 22.9649C25.37 23.7399 25.328 24.6439 25.117 25.5909C24.611 27.8719 23.135 30.6269 20.858 33.5969ZM33.848 40.6559C35.914 39.7949 37.39 37.8579 37.685 35.6199C37.855 34.4999 37.727 33.4249 37.39 32.3049C37.29 31.9926 37.1718 31.6864 37.036 31.3879C36.973 31.2409 36.908 31.0879 36.842 30.9279C36.672 30.5819 36.513 30.2129 36.354 29.8449C36.2016 29.4849 36.0409 29.1284 35.872 28.7759V28.7329C32.9138 22.2195 29.8346 15.7617 26.636 9.36287L26.509 9.10487C26.3382 8.77595 26.1696 8.44594 26.003 8.11487C25.8368 7.78364 25.6681 7.45363 25.497 7.12488C25.16 6.43687 24.78 5.79087 24.317 5.23088C23.43 4.19788 22.25 3.63888 20.942 3.63888C19.635 3.63888 18.454 4.19887 17.568 5.23088C17.104 5.79087 16.725 6.43687 16.388 7.12488C16.217 7.4537 16.0484 7.78371 15.882 8.11487C15.713 8.44887 15.544 8.78187 15.375 9.10487L15.249 9.36388C12.0114 15.7353 8.91793 22.1789 5.971 28.6899L5.929 28.7759C5.59587 29.4888 5.2725 30.2062 4.959 30.9279C4.895 31.0859 4.83 31.2359 4.769 31.3809C4.627 31.7079 4.499 32.0069 4.41 32.3059C4.02167 33.3796 3.89183 34.5296 4.031 35.6629C4.326 37.9009 5.802 39.8379 7.869 40.6989C8.88536 41.1049 9.98655 41.2527 11.074 41.1289C12.128 40.9999 13.182 40.6559 14.279 40.0099C15.797 39.1499 17.359 37.8149 19.087 35.8349C16.345 32.3489 14.617 29.1199 13.984 26.2799C13.6664 25.0868 13.595 23.8415 13.774 22.6199C13.9287 21.5716 14.3173 20.5716 14.911 19.6939C16.219 17.7999 18.412 16.6379 20.858 16.6379C23.304 16.6379 25.498 17.7569 26.804 19.6939C27.395 20.5539 27.774 21.5439 27.944 22.6209C28.0785 23.8438 28.0068 25.0806 27.732 26.2799C27.1 29.1199 25.413 32.3059 22.629 35.7919C24.4 37.7719 25.919 39.1059 27.437 39.9669C28.533 40.6129 29.588 40.9569 30.642 41.0869C31.739 41.2149 32.836 41.0869 33.848 40.6559Z" fill="white"/>
</g>
<defs>
<clipPath id="clip0_1_54">
<rect width="136" height="43" fill="white" transform="translate(0.5 0.796875)"/>
</clipPath>
</defs>
</svg>
