<svg width="32" height="33" viewBox="0 0 32 33" fill="none" xmlns="http://www.w3.org/2000/svg">
<g clip-path="url(#clip0_112_237)">
<path opacity="0.2" d="M16.6201 12.3109C18.3172 13.2615 19.7184 14.6627 20.669 16.3597C24.0836 13.3712 28.1212 8.96875 28.1212 4.85864C24.0111 4.85864 19.6086 8.89624 16.6201 12.3109Z" fill="#FF8585"/>
<path d="M2.5 27.98H11.5C12.7856 27.98 14.0423 27.5988 15.1112 26.8845C16.1801 26.1703 17.0132 25.1551 17.5052 23.9674C17.9972 22.7797 18.1259 21.4728 17.8751 20.2119C17.6243 18.951 17.0052 17.7928 16.0962 16.8838C15.1872 15.9747 14.029 15.3557 12.7681 15.1049C11.5072 14.8541 10.2003 14.9828 9.01256 15.4748C7.82484 15.9667 6.80968 16.7999 6.09545 17.8688C5.38122 18.9377 5 20.1944 5 21.48C5 25.98 2.5 27.98 2.5 27.98Z" stroke="#FF8585" stroke-width="2" stroke-linecap="round" stroke-linejoin="round"/>
<path d="M14.0508 15.4999C16.45 12.2664 22.5541 4.85864 28.1212 4.85864C28.1212 10.4257 20.7136 16.5297 17.4801 18.929" stroke="#FF8585" stroke-width="2" stroke-linecap="round" stroke-linejoin="round"/>
<path d="M16.6201 12.3108C18.3173 13.2614 19.7186 14.6627 20.6692 16.3599" stroke="#FF8585" stroke-width="2" stroke-linecap="round" stroke-linejoin="round"/>
</g>
<defs>
<clipPath id="clip0_112_237">
<rect width="32" height="32" fill="white" transform="translate(0 0.97998)"/>
</clipPath>
</defs>
</svg>
