<svg width="30" height="31" viewBox="0 0 30 31" fill="none" xmlns="http://www.w3.org/2000/svg">
<g clip-path="url(#clip0_1_670)">
<path opacity="0.2" d="M11.8308 21.4791L10.4216 24.2975C10.3277 24.4868 10.1724 24.6387 9.98098 24.7283C9.78959 24.8179 9.57347 24.8399 9.36795 24.7908C6.49232 24.0877 4.01332 22.862 2.20778 21.2927C2.0699 21.1741 1.96921 21.0182 1.91782 20.8438C1.86643 20.6694 1.86653 20.4838 1.9181 20.3095L5.89941 7.03841C5.9396 6.90459 6.00912 6.78142 6.10291 6.67785C6.19669 6.57428 6.31239 6.49292 6.44158 6.43969C7.56635 5.97918 8.72965 5.61907 9.91788 5.36358C10.1443 5.31397 10.381 5.34978 10.5826 5.46413C10.7842 5.57848 10.9364 5.76331 11.01 5.98308L11.9443 8.78616C13.972 8.50887 16.028 8.50885 18.0557 8.78614L18.99 5.98308C19.0636 5.76331 19.2158 5.57848 19.4174 5.46413C19.619 5.34978 19.8557 5.31397 20.0821 5.36358C21.2704 5.61907 22.4337 5.97918 23.5584 6.4397C23.6876 6.49292 23.8033 6.57428 23.8971 6.67785C23.9909 6.78142 24.0604 6.9046 24.1006 7.03842L28.0819 20.3095C28.1335 20.4838 28.1336 20.6694 28.0822 20.8438C28.0308 21.0182 27.9301 21.1741 27.7922 21.2926C25.9867 22.862 23.5077 24.0877 20.6321 24.7908C20.4265 24.8399 20.2104 24.8179 20.019 24.7283C19.8276 24.6387 19.6723 24.4868 19.5784 24.2975L18.1692 21.4791C17.1195 21.6294 16.0604 21.7043 15 21.7032C13.9396 21.7043 12.8805 21.6294 11.8308 21.4791Z" fill="white"/>
<path d="M11.25 18.4219C12.0267 18.4219 12.6562 17.7923 12.6562 17.0156C12.6562 16.239 12.0267 15.6094 11.25 15.6094C10.4733 15.6094 9.84375 16.239 9.84375 17.0156C9.84375 17.7923 10.4733 18.4219 11.25 18.4219Z" fill="white"/>
<path d="M18.75 18.4219C19.5267 18.4219 20.1562 17.7923 20.1562 17.0156C20.1562 16.239 19.5267 15.6094 18.75 15.6094C17.9733 15.6094 17.3438 16.239 17.3438 17.0156C17.3438 17.7923 17.9733 18.4219 18.75 18.4219Z" fill="white"/>
<path d="M8.71895 9.51564C10.7514 8.8795 12.8704 8.56322 15 8.57814C17.1296 8.56322 19.2485 8.87949 21.281 9.51561" stroke="white" stroke-width="1.875" stroke-linecap="round" stroke-linejoin="round"/>
<path d="M21.2809 20.7656C19.2485 21.4017 17.1296 21.718 15 21.7031C12.8704 21.718 10.7515 21.4017 8.71904 20.7656" stroke="white" stroke-width="1.875" stroke-linecap="round" stroke-linejoin="round"/>
<path d="M18.1692 21.4791L19.5784 24.2975C19.6723 24.4868 19.8276 24.6387 20.019 24.7283C20.2104 24.8179 20.4265 24.8399 20.6321 24.7908C23.5077 24.0877 25.9867 22.862 27.7923 21.2926C27.9301 21.1741 28.0308 21.0182 28.0822 20.8438C28.1336 20.6694 28.1335 20.4838 28.0819 20.3095L24.1006 7.03842C24.0604 6.9046 23.9909 6.78142 23.8971 6.67785C23.8033 6.57428 23.6876 6.49292 23.5584 6.4397C22.4337 5.97918 21.2704 5.61907 20.0821 5.36358C19.8557 5.31397 19.619 5.34978 19.4174 5.46413C19.2158 5.57848 19.0636 5.76331 18.99 5.98308L18.0557 8.78616" stroke="white" stroke-width="1.875" stroke-linecap="round" stroke-linejoin="round"/>
<path d="M11.8308 21.4791L10.4216 24.2975C10.3277 24.4868 10.1724 24.6387 9.98098 24.7283C9.78959 24.8179 9.57347 24.8399 9.36795 24.7908C6.49232 24.0877 4.01332 22.862 2.20778 21.2926C2.0699 21.1741 1.96921 21.0182 1.91782 20.8438C1.86643 20.6694 1.86653 20.4838 1.9181 20.3095L5.89941 7.03841C5.9396 6.90459 6.00912 6.78142 6.10291 6.67785C6.1967 6.57428 6.31239 6.49292 6.44158 6.43969C7.56635 5.97918 8.72965 5.61907 9.91788 5.36358C10.1443 5.31397 10.381 5.34978 10.5826 5.46413C10.7842 5.57848 10.9364 5.76331 11.01 5.98308L11.9443 8.78616" stroke="white" stroke-width="1.875" stroke-linecap="round" stroke-linejoin="round"/>
</g>
<defs>
<clipPath id="clip0_1_670">
<rect width="30" height="30" fill="white" transform="translate(0 0.140625)"/>
</clipPath>
</defs>
</svg>
