<svg width="31" height="31" viewBox="0 0 31 31" fill="none" xmlns="http://www.w3.org/2000/svg">
<g clip-path="url(#clip0_1_314)">
<path opacity="0.2" d="M27.0781 15.9844H4.57812C4.06036 15.9844 3.64062 16.4041 3.64062 16.9219V24.4219C3.64062 24.9396 4.06036 25.3594 4.57812 25.3594H27.0781C27.5959 25.3594 28.0156 24.9396 28.0156 24.4219V16.9219C28.0156 16.4041 27.5959 15.9844 27.0781 15.9844Z" fill="white"/>
<path d="M21.4531 15.9844H27.0781C27.3268 15.9844 27.5652 16.0831 27.741 16.259C27.9169 16.4348 28.0156 16.6732 28.0156 16.9219V24.4219C28.0156 24.6705 27.9169 24.909 27.741 25.0848C27.5652 25.2606 27.3268 25.3594 27.0781 25.3594H4.57812C4.32948 25.3594 4.09103 25.2606 3.91521 25.0848C3.7394 24.909 3.64063 24.6705 3.64062 24.4219V16.9219C3.64062 16.6732 3.7394 16.4348 3.91521 16.259C4.09103 16.0831 4.32948 15.9844 4.57812 15.9844H10.2031" stroke="white" stroke-width="1.875" stroke-linecap="round" stroke-linejoin="round"/>
<path d="M15.8281 3.79688V15.9844" stroke="white" stroke-width="1.875" stroke-linecap="round" stroke-linejoin="round"/>
<path d="M10.2031 10.3594L15.8281 15.9844L21.4531 10.3594" stroke="white" stroke-width="1.875" stroke-linecap="round" stroke-linejoin="round"/>
<path d="M22.8594 22.0781C23.636 22.0781 24.2656 21.4485 24.2656 20.6719C24.2656 19.8952 23.636 19.2656 22.8594 19.2656C22.0827 19.2656 21.4531 19.8952 21.4531 20.6719C21.4531 21.4485 22.0827 22.0781 22.8594 22.0781Z" fill="white"/>
</g>
<defs>
<clipPath id="clip0_1_314">
<rect width="30" height="30" fill="white" transform="translate(0.828125 0.984375)"/>
</clipPath>
</defs>
</svg>
