<svg width="32" height="33" viewBox="0 0 32 33" fill="none" xmlns="http://www.w3.org/2000/svg">
<g clip-path="url(#clip0_1_79)">
<path opacity="0.2" d="M4 21.5937L10.2929 15.3009C10.3857 15.208 10.496 15.1343 10.6173 15.0841C10.7386 15.0338 10.8687 15.008 11 15.008C11.1313 15.008 11.2613 15.0338 11.3827 15.0841C11.504 15.1343 11.6142 15.208 11.7071 15.3009L17.2929 20.8866C17.3857 20.9795 17.496 21.0532 17.6173 21.1034C17.7386 21.1537 17.8687 21.1795 18 21.1795C18.1313 21.1795 18.2613 21.1537 18.3827 21.1034C18.504 21.0532 18.6142 20.9795 18.7071 20.8866L21.2929 18.3009C21.3857 18.208 21.496 18.1343 21.6173 18.0841C21.7386 18.0338 21.8687 18.008 22 18.008C22.1313 18.008 22.2613 18.0338 22.3827 18.0841C22.504 18.1343 22.6142 18.208 22.7071 18.3009L28 23.5938L28 7.59375C28 7.32853 27.8946 7.07418 27.7071 6.88664C27.5196 6.69911 27.2652 6.59375 27 6.59375H5C4.73478 6.59375 4.48043 6.69911 4.29289 6.88664C4.10536 7.07418 4 7.32853 4 7.59375V21.5937Z" fill="#FF8585"/>
<path d="M27 6.59375H5C4.44772 6.59375 4 7.04147 4 7.59375V25.5938C4 26.146 4.44772 26.5938 5 26.5938H27C27.5523 26.5938 28 26.146 28 25.5938V7.59375C28 7.04147 27.5523 6.59375 27 6.59375Z" stroke="#FF8585" stroke-width="2" stroke-linecap="round" stroke-linejoin="round"/>
<path d="M4 21.5937L10.2929 15.3008C10.3857 15.208 10.496 15.1343 10.6173 15.0841C10.7386 15.0338 10.8687 15.0079 11 15.0079C11.1313 15.0079 11.2613 15.0338 11.3827 15.0841C11.504 15.1343 11.6142 15.208 11.7071 15.3008L17.2929 20.8866C17.3857 20.9795 17.496 21.0531 17.6173 21.1034C17.7386 21.1536 17.8687 21.1795 18 21.1795C18.1313 21.1795 18.2613 21.1536 18.3827 21.1034C18.504 21.0531 18.6142 20.9795 18.7071 20.8866L21.2929 18.3008C21.3857 18.208 21.496 18.1343 21.6173 18.0841C21.7386 18.0338 21.8687 18.0079 22 18.0079C22.1313 18.0079 22.2613 18.0338 22.3827 18.0841C22.504 18.1343 22.6142 18.208 22.7071 18.3008L28 23.5937" stroke="#FF8585" stroke-width="2" stroke-linecap="round" stroke-linejoin="round"/>
<path d="M19.5 14.5938C20.3284 14.5938 21 13.9222 21 13.0938C21 12.2653 20.3284 11.5938 19.5 11.5938C18.6716 11.5938 18 12.2653 18 13.0938C18 13.9222 18.6716 14.5938 19.5 14.5938Z" fill="#FF8585"/>
</g>
<defs>
<clipPath id="clip0_1_79">
<rect width="32" height="32" fill="white" transform="translate(0 0.59375)"/>
</clipPath>
</defs>
</svg>
