<svg width="30" height="31" viewBox="0 0 30 31" fill="none" xmlns="http://www.w3.org/2000/svg">
<g clip-path="url(#clip0_1_690)">
<path opacity="0.2" d="M20.1562 4.35938H9.84375C9.10506 4.35937 8.37361 4.50487 7.69115 4.78755C7.0087 5.07023 6.3886 5.48457 5.86627 6.0069C5.34394 6.52922 4.92961 7.14932 4.64692 7.83178C4.36424 8.51424 4.21875 9.24569 4.21875 9.98438V20.2969C4.21875 21.0356 4.36424 21.767 4.64692 22.4495C4.92961 23.1319 5.34394 23.752 5.86627 24.2744C6.3886 24.7967 7.0087 25.211 7.69115 25.4937C8.37361 25.7764 9.10506 25.9219 9.84375 25.9219H20.1562C20.8949 25.9219 21.6264 25.7764 22.3088 25.4937C22.9913 25.211 23.6114 24.7967 24.1337 24.2744C24.6561 23.752 25.0704 23.1319 25.3531 22.4495C25.6358 21.767 25.7813 21.0356 25.7812 20.2969V9.98438C25.7813 9.24569 25.6358 8.51424 25.3531 7.83178C25.0704 7.14932 24.6561 6.52922 24.1337 6.0069C23.6114 5.48457 22.9913 5.07023 22.3088 4.78755C21.6264 4.50487 20.8949 4.35937 20.1562 4.35938ZM15 19.8281C14.0729 19.8281 13.1666 19.5532 12.3958 19.0381C11.6249 18.5231 11.0241 17.791 10.6693 16.9345C10.3145 16.0779 10.2217 15.1354 10.4026 14.2261C10.5834 13.3169 11.0299 12.4816 11.6854 11.8261C12.341 11.1705 13.1762 10.7241 14.0855 10.5432C14.9948 10.3623 15.9373 10.4552 16.7938 10.8099C17.6504 11.1647 18.3824 11.7655 18.8975 12.5364C19.4126 13.3072 19.6875 14.2135 19.6875 15.1406C19.6875 16.3838 19.1936 17.5761 18.3146 18.4552C17.4355 19.3343 16.2432 19.8281 15 19.8281Z" fill="white"/>
<path d="M15 19.8281C17.5888 19.8281 19.6875 17.7295 19.6875 15.1406C19.6875 12.5518 17.5888 10.4531 15 10.4531C12.4112 10.4531 10.3125 12.5518 10.3125 15.1406C10.3125 17.7295 12.4112 19.8281 15 19.8281Z" stroke="white" stroke-width="1.875" stroke-miterlimit="10"/>
<path d="M20.1562 4.35938H9.84375C6.73715 4.35938 4.21875 6.87777 4.21875 9.98438V20.2969C4.21875 23.4035 6.73715 25.9219 9.84375 25.9219H20.1562C23.2629 25.9219 25.7812 23.4035 25.7812 20.2969V9.98438C25.7812 6.87777 23.2629 4.35938 20.1562 4.35938Z" stroke="white" stroke-width="1.875" stroke-linecap="round" stroke-linejoin="round"/>
<path d="M21.0938 10.4531C21.8704 10.4531 22.5 9.82352 22.5 9.04687C22.5 8.27022 21.8704 7.64062 21.0938 7.64062C20.3171 7.64062 19.6875 8.27022 19.6875 9.04687C19.6875 9.82352 20.3171 10.4531 21.0938 10.4531Z" fill="white"/>
</g>
<defs>
<clipPath id="clip0_1_690">
<rect width="30" height="30" fill="white" transform="translate(0 0.140625)"/>
</clipPath>
</defs>
</svg>
