<svg width="132" height="34" viewBox="0 0 132 34" fill="none" xmlns="http://www.w3.org/2000/svg">
<g clip-path="url(#clip0_1_42)">
<path fill-rule="evenodd" clip-rule="evenodd" d="M62.407 13.7949C63.429 13.0049 64.673 12.4789 65.979 12.4419C67.549 12.3189 69.124 12.8589 70.345 13.8319C70.804 14.1359 71.122 14.6179 71.44 15.0999L71.649 15.4119V12.7799H73.86V32.5549H71.649V25.2649C71.623 24.9249 71.285 25.3619 71.309 25.4689C71.2772 25.5075 71.2456 25.5461 71.214 25.5849C70.907 25.9639 70.565 26.3849 70.193 26.6149C68.554 27.8759 66.281 28.1949 64.319 27.5749C63.707 27.4169 63.128 27.0499 62.611 26.7229L62.35 26.5589C61.637 25.9729 61.153 25.2879 60.702 24.4969C59.542 22.2749 59.413 19.5799 60.138 17.1999C60.389 16.3479 60.833 15.5859 61.356 14.8719C61.597 14.4839 62.042 14.0549 62.407 13.7949ZM69.645 15.3549C68.921 14.7169 67.769 14.4319 66.754 14.4349C66.2951 14.4153 65.8363 14.4738 65.397 14.6079C64.497 14.8199 63.762 15.4169 63.201 16.1079C62.367 17.2069 62.106 18.6249 62.051 19.9759C62.032 21.5329 62.339 23.2329 63.415 24.4079C63.992 25.0889 64.756 25.6009 65.656 25.7549C67.015 25.9899 68.571 25.8379 69.645 24.9229C70.375 24.3409 70.932 23.5909 71.222 22.7029C71.868 20.8669 71.794 18.7649 70.968 16.9969C70.655 16.3129 70.223 15.8209 69.645 15.3549Z" fill="white"/>
<path d="M49.736 6.78388C48.053 6.85088 46.34 7.28888 44.992 8.32488C44.715 8.50788 44.409 8.83788 44.218 9.12488C43.395 10.1579 42.974 11.5019 43.105 12.8209C43.153 13.7809 43.509 14.7149 44.16 15.4309C44.351 15.7159 44.719 16.0409 45.019 16.2279C46.76 17.5739 49.024 17.8239 51.079 18.4359C52.362 18.8249 53.847 19.0879 54.687 20.2239C55.398 21.0879 55.378 22.3859 54.99 23.4009C54.657 24.2309 53.931 24.8259 53.156 25.2429C51.535 25.9409 49.656 25.8949 47.978 25.4279C46.7136 25.0483 45.5952 24.2919 44.772 23.2599C44.562 22.9199 44.376 22.6999 44.047 23.0939L42.554 24.1339C42.954 24.7589 43.426 25.3579 43.99 25.7879C44.956 26.5219 46.002 27.1719 47.19 27.4769C49.411 28.1349 51.877 28.0669 54.026 27.1789C54.893 26.7289 55.721 26.2739 56.334 25.5179C57.1571 24.5276 57.6247 23.2901 57.662 22.0029C57.727 20.7789 57.33 19.5369 56.52 18.6069C56.3371 18.3434 56.098 18.1238 55.82 17.9639C55.416 17.6059 54.958 17.3819 54.462 17.1149C52.252 16.0149 49.731 15.7779 47.472 14.8169C46.781 14.4749 46.088 14.0009 45.729 13.3069C45.191 12.1199 45.61 10.6169 46.663 9.86488C47.583 9.13188 48.846 8.91588 50.012 8.90788C52.036 8.88788 54.089 9.76488 55.311 11.3889L57.125 10.0359C56.595 9.30088 55.932 8.73188 55.206 8.24588C53.5813 7.19658 51.6676 6.6851 49.736 6.78388ZM77.592 22.3669C77.594 23.6579 77.858 25.0009 78.65 26.0509C78.997 26.6109 79.68 27.0569 80.287 27.3859C81.875 28.1159 83.78 28.0059 85.351 27.2889C86.067 26.9039 86.755 26.4249 87.212 25.8069C87.421 25.6149 87.657 25.0689 87.779 25.0399V27.5359H89.99V12.7799H87.779C87.763 15.7939 87.814 18.8099 87.741 21.8219C87.562 23.0349 87.008 24.2059 86.002 24.9419C84.783 25.8659 83.016 26.0909 81.58 25.5249C80.573 25.0749 80 23.9769 79.928 22.8979C79.755 21.0109 79.878 19.1119 79.841 17.2199V12.7799H77.592V22.3669Z" fill="white"/>
<path fill-rule="evenodd" clip-rule="evenodd" d="M93.68 14.2269C95.2662 13.1231 97.1385 12.503 99.07 12.4419C100.5 12.3619 102.03 12.6169 103.23 13.4039C104.16 13.9149 104.72 15.0009 104.89 16.0509C104.941 18.4869 104.935 20.9229 104.929 23.3599C104.924 24.7522 104.925 26.1445 104.93 27.5369H102.79V26.4089C102.764 26.3269 102.778 26.2149 102.791 26.1019C102.814 25.9049 102.838 25.7059 102.66 25.6569C102.525 25.7569 102.438 25.8909 102.349 26.0269C102.246 26.1829 102.142 26.3429 101.96 26.4599C101.282 27.0723 100.459 27.5036 99.57 27.7139C98.03 28.0099 96.33 27.9459 94.95 27.1609C94.8503 27.0895 94.749 27.0204 94.646 26.9539C94.366 26.7699 94.091 26.5899 93.93 26.3519C93.51 25.8219 93.17 25.2389 93.03 24.5699C92.8 23.3859 92.85 22.0289 93.65 21.0509C94.02 20.4829 94.62 20.0409 95.26 19.7409C96.297 19.2739 97.429 19.1139 98.556 18.9549C98.983 18.8949 99.41 18.8349 99.83 18.7579C100.63 18.6049 101.58 18.3869 102.13 17.8559C102.8 17.3489 102.88 16.3349 102.5 15.6279C101.82 14.5869 100.43 14.3619 99.25 14.3779C97.63 14.4429 95.95 14.8499 94.65 15.8439C94.33 15.3059 94.01 14.7659 93.68 14.2269ZM102.722 20.5839C102.709 20.1883 102.709 19.7925 102.72 19.3969V19.2659C102.48 19.5059 102.19 19.6729 101.87 19.8479C101.019 20.1779 100.123 20.3339 99.227 20.4899C98.428 20.6299 97.628 20.7689 96.86 21.0299C96.17 21.2569 95.52 21.7029 95.31 22.4239C95.04 23.2559 95.15 24.2839 95.71 24.9609C96.49 25.8949 97.84 26.0389 98.99 25.9439C100.29 25.8439 101.56 25.1649 102.19 24.0159C102.773 22.9589 102.747 21.7639 102.722 20.5839Z" fill="white"/>
<path d="M115.12 12.4989C113.944 12.6016 112.836 13.0923 111.97 13.8939C111.61 14.2869 111.28 14.7789 110.97 15.2619V12.7799H108.76V27.5369H110.97C110.99 24.6599 110.92 21.7799 111.01 18.9049C111.18 17.5129 111.77 16.0959 112.96 15.2809C114.02 14.4859 115.54 14.4249 116.77 14.9049C117.03 14.7709 116.93 14.3199 117.07 14.0649C117.16 13.6989 117.26 13.3339 117.35 12.9679C116.69 12.5839 115.89 12.4539 115.12 12.4989Z" fill="white"/>
<path fill-rule="evenodd" clip-rule="evenodd" d="M121.18 13.6268C122.25 12.9218 123.5 12.4638 124.79 12.4418C126.31 12.3488 127.93 12.7228 129.18 13.6078L129.241 13.6518C129.692 13.9758 130.153 14.3078 130.45 14.7578C131.72 16.3478 132.18 18.4698 131.93 20.4678H121.58C121.451 20.5048 121.295 20.4868 121.139 20.4678C120.884 20.4378 120.63 20.4078 120.5 20.6188C120.53 21.9588 120.86 23.4168 121.85 24.3688C123.04 25.7128 125.02 26.0748 126.74 25.7448C127.975 25.5238 129.085 24.8569 129.86 23.8708C130.35 24.3218 130.85 24.7738 131.35 25.2248C130.99 25.6678 130.61 26.0308 130.16 26.3348C128.72 27.5338 126.78 27.9678 124.93 27.8648C123.55 27.8228 122.18 27.3868 121.05 26.5778C120.743 26.3679 120.455 26.1306 120.19 25.8688C119.51 25.0888 118.87 24.1138 118.57 23.0638C117.88 20.7738 118.01 18.1968 119.1 16.0508C119.51 15.3648 119.92 14.7098 120.48 14.1768C120.647 14.0318 120.829 13.8938 120.997 13.7668L121.18 13.6268ZM129.17 16.5388C128.49 15.2328 127.06 14.4098 125.58 14.3218C124.52 14.2478 123.41 14.4428 122.51 15.0258C122.422 15.1158 122.308 15.2058 122.193 15.2978C122.007 15.4458 121.817 15.5978 121.73 15.7508C120.92 16.5328 120.66 17.6958 120.52 18.7768H129.7C129.685 18.0016 129.504 17.2384 129.17 16.5388ZM26.812 1.51685H5.363C2.414 1.51685 0 3.91685 0 6.85085V28.1848C0 31.1168 2.414 33.5168 5.363 33.5168H26.812C29.761 33.5168 32.175 31.1168 32.175 28.1848V6.85085C32.175 3.91785 29.761 1.51685 26.812 1.51685ZM26.324 26.0048C26.324 26.9368 25.557 27.6978 24.619 27.6978H7.555C7.10462 27.6984 6.67235 27.5206 6.35267 27.2034C6.03299 26.8861 5.85191 26.4552 5.849 26.0048V9.03285C5.849 8.09985 6.617 7.33685 7.555 7.33685H24.619C25.557 7.33685 26.324 8.09985 26.324 9.03285V26.0048ZM19.502 21.8808C19.7596 21.8808 20.0068 21.7788 20.1893 21.597C20.3719 21.4152 20.4749 21.1685 20.476 20.9108V14.1238C20.4747 13.8663 20.3715 13.6197 20.189 13.438C20.0065 13.2563 19.7596 13.1541 19.502 13.1538H12.678C12.4204 13.1538 12.1732 13.2559 11.9907 13.4377C11.8081 13.6195 11.7051 13.8662 11.704 14.1238V20.9108C11.704 21.4458 12.141 21.8808 12.678 21.8808H19.502Z" fill="white"/>
</g>
<defs>
<clipPath id="clip0_1_42">
<rect width="132" height="33" fill="white" transform="translate(0 0.796875)"/>
</clipPath>
</defs>
</svg>
