<svg width="220" height="221" viewBox="0 0 220 221" fill="none" xmlns="http://www.w3.org/2000/svg">
<g clip-path="url(#clip0_1_267)">
<path fill-rule="evenodd" clip-rule="evenodd" d="M84.8443 50.1602C82.3099 47.1854 80.5946 43.5398 80.8812 39.4547C81.7071 27.6844 98.0917 30.2737 101.279 36.2143C104.466 42.155 104.087 57.2238 99.9682 58.2856C98.3255 58.709 94.8261 57.6718 91.2645 55.525L93.5 71.3407H80.3L84.8443 50.1602Z" fill="#B28B67"/>
<path fill-rule="evenodd" clip-rule="evenodd" d="M83.83 52.8097C82.1733 45.4391 77.4535 40.4148 78.1743 37.1205C78.6549 34.9243 79.9357 33.5585 82.0167 33.0232C83.093 28.6691 86.5643 26.8171 92.4306 27.4673C101.23 28.4425 106.601 32.0968 104.281 40.1379C102.149 40.1379 99.5756 39.3669 96.0165 40.6879C94.8873 41.1071 94.0796 42.4069 93.5935 44.5875H91.9852C90.4243 41.9998 88.8852 41.0488 87.3679 41.7347C85.8507 42.4206 85.5058 44.0866 86.3333 46.7328L85.541 52.8097H83.83Z" fill="#191847"/>
<path fill-rule="evenodd" clip-rule="evenodd" d="M56.4425 140.091H98.9325L104.5 208.291H41.25L56.4425 140.091Z" fill="#C5CFD6"/>
<path fill-rule="evenodd" clip-rule="evenodd" d="M56.4425 140.091H69.5105L77.3321 208.291H41.25L56.4425 140.091Z" fill="black" fill-opacity="0.1"/>
<path fill-rule="evenodd" clip-rule="evenodd" d="M147.374 128.407C151.905 125.686 159.505 129.181 159.5 133.072C159.484 144.712 148.861 199.574 148.307 203.042C147.752 206.51 141.81 207.426 141.464 203.053C140.914 196.095 139.891 172.009 140.914 160.86C141.337 156.258 141.792 151.875 142.239 147.965C136.665 158.032 128.044 172.445 116.376 191.204L110.042 188.31C115.016 171.923 119.095 160.353 122.278 153.602C127.728 142.043 132.839 132.144 134.99 128.657C138.373 123.173 144.263 125.086 147.374 128.407Z" fill="#B28B67"/>
<path fill-rule="evenodd" clip-rule="evenodd" d="M110.495 179.21L132.235 127.709C137.443 119.331 152.045 129.414 150.269 134.273C146.237 145.304 125.73 181.019 124.529 184.305L110.495 179.21Z" fill="#1F28CF"/>
<path fill-rule="evenodd" clip-rule="evenodd" d="M109.287 185.062C107.933 186.177 107.052 187.088 106.645 187.794C106.149 188.653 105.568 189.989 104.903 191.802C105.899 192.377 114.854 197.547 131.768 207.313C133.798 205.408 134.115 203.929 132.717 202.876C131.319 201.824 130.166 200.937 129.256 200.214L119.984 187.438C119.805 187.192 119.461 187.138 119.215 187.316C119.211 187.319 119.207 187.322 119.203 187.325L117.276 188.809C115.509 188.655 114.19 188.326 113.319 187.824C112.612 187.415 111.8 186.566 110.884 185.275C110.532 184.779 109.845 184.663 109.35 185.015C109.328 185.03 109.308 185.046 109.287 185.062Z" fill="#E4E4E4"/>
<path fill-rule="evenodd" clip-rule="evenodd" d="M140.073 200.262C139.458 201.904 139.15 203.133 139.15 203.949C139.15 204.941 139.315 206.388 139.646 208.291C140.796 208.291 151.137 208.291 170.667 208.291C171.473 205.626 171.007 204.187 169.271 203.974C167.534 203.762 166.091 203.57 164.942 203.399L150.524 196.971C150.247 196.847 149.921 196.972 149.798 197.25C149.796 197.254 149.794 197.259 149.792 197.264L148.865 199.512C147.257 200.262 145.95 200.637 144.945 200.637C144.128 200.637 143.001 200.307 141.561 199.648C141.009 199.395 140.356 199.637 140.103 200.189C140.092 200.213 140.082 200.237 140.073 200.262Z" fill="#E4E4E4"/>
<path fill-rule="evenodd" clip-rule="evenodd" d="M161.024 137.029C161.024 151.641 154.084 185.724 154.08 188.942L139.15 188.953C141.335 158.541 142.11 143.171 141.475 142.843C140.521 142.352 102.397 146.649 90.9625 146.649C74.4743 146.649 67.6535 136.252 67.1 116.991H99.7625C106.413 117.702 141.102 124.699 153.985 127.104C159.5 128.134 161.024 133.004 161.024 137.029Z" fill="#2B44FF"/>
<path fill-rule="evenodd" clip-rule="evenodd" d="M127.321 110.094L142.902 125.293C147.435 127.227 151.149 129.362 154.045 131.699C154.696 132.484 155.405 133.989 152.341 133.316C149.278 132.642 146.025 132.072 145.449 133.068C144.873 134.064 146.57 135.591 145.506 136.895C144.796 137.764 142.41 134.999 138.348 128.6L122.146 119.048L127.321 110.094ZM51.1334 96.3379L63.177 96.3831C54.0042 126.102 49.135 141.662 48.5694 143.064C47.2967 146.218 49.9898 151.021 51.1415 153.602C47.3905 155.281 47.7902 149.065 43.0584 151.266C38.7394 153.276 35.4539 156.916 30.464 153.837C29.8505 153.459 29.1782 152.034 30.8025 150.92C34.8493 148.145 40.6809 143.289 41.4689 141.69C42.5434 139.51 45.7649 124.393 51.1334 96.3379Z" fill="#B28B67"/>
<path fill-rule="evenodd" clip-rule="evenodd" d="M87.8323 62.1732L92.5882 61.3574C100.08 87.8409 138.574 105.893 140.937 115.793C141.804 119.424 139.191 121.259 140.54 122.365L134.359 126.891C133.312 125.669 131.078 127.903 126.413 126.341C121.748 124.778 87.8323 93.5319 87.8323 62.1732Z" fill="#DB2721"/>
<path fill-rule="evenodd" clip-rule="evenodd" d="M95.8324 65.6942C95.2841 100.756 115.553 109.7 111.038 123.766C107.31 135.381 71.625 147.867 65.45 136.481C62.9504 131.873 61.8164 126.299 61.6877 120.239C60.1095 124.894 58.8613 128.902 57.9431 132.263C56.3592 138.06 50.2184 138.981 50.2184 141.214L42.1281 138.981C42.6769 135.947 38.8629 134.47 39.8856 127.692C44.4675 97.3224 56.7784 75.3085 76.8182 61.6501L77.0255 58.6853C77.1103 57.4732 78.1615 56.5594 79.3736 56.6441L94.1874 57.68C95.3995 57.7648 96.3134 58.816 96.2286 60.0281L95.8324 65.6942Z" fill="#FF4133"/>
</g>
<defs>
<clipPath id="clip0_1_267">
<rect width="220" height="220" fill="white" transform="translate(0 0.390625)"/>
</clipPath>
</defs>
</svg>
