<svg width="33" height="33" viewBox="0 0 33 33" fill="none" xmlns="http://www.w3.org/2000/svg">
<g clip-path="url(#clip0_1_67)">
<path opacity="0.2" d="M24.3281 15.5937L17.3281 8.59372L20.621 5.30083C20.8086 5.11329 21.0629 5.00793 21.3281 5.00793C21.5933 5.00793 21.8477 5.11329 22.0352 5.30083L27.621 10.8866C27.8086 11.0742 27.9139 11.3285 27.9139 11.5937C27.9139 11.8589 27.8086 12.1133 27.621 12.3008L24.3281 15.5937Z" fill="#FF8585"/>
<path d="M11.9139 27.5937H6.32812C6.06291 27.5937 5.80855 27.4884 5.62102 27.3008C5.43348 27.1133 5.32813 26.8589 5.32813 26.5937V21.0079C5.32812 20.8766 5.35399 20.7466 5.40425 20.6253C5.4545 20.5039 5.52816 20.3937 5.62102 20.3008L20.621 5.30083C20.8086 5.11329 21.0629 5.00793 21.3281 5.00793C21.5933 5.00793 21.8477 5.11329 22.0352 5.30083L27.621 10.8866C27.8086 11.0742 27.9139 11.3285 27.9139 11.5937C27.9139 11.8589 27.8086 12.1133 27.621 12.3008L12.621 27.3008C12.5282 27.3937 12.4179 27.4673 12.2966 27.5176C12.1753 27.5679 12.0452 27.5937 11.9139 27.5937Z" stroke="#FF8585" stroke-width="2" stroke-linecap="round" stroke-linejoin="round"/>
<path d="M17.3281 8.59375L24.3281 15.5938" stroke="#FF8585" stroke-width="2" stroke-linecap="round" stroke-linejoin="round"/>
<path d="M20.3281 24.5938L25.3281 19.5938L24.3281 15.5938" stroke="#FF8585" stroke-width="2" stroke-linecap="round" stroke-linejoin="round"/>
<path d="M5.39172 20.6573L12.2645 27.5301" stroke="#FF8585" stroke-width="2" stroke-linecap="round" stroke-linejoin="round"/>
</g>
<defs>
<clipPath id="clip0_1_67">
<rect width="32" height="32" fill="white" transform="translate(0.328125 0.59375)"/>
</clipPath>
</defs>
</svg>
