<svg width="17" height="17" viewBox="0 0 17 17" fill="none" xmlns="http://www.w3.org/2000/svg">
<g clip-path="url(#clip0_1_431)">
<path opacity="0.2" d="M5.04688 10.8438C6.15144 10.8438 7.04688 9.94832 7.04688 8.84375C7.04688 7.73918 6.15144 6.84375 5.04688 6.84375C3.94231 6.84375 3.04688 7.73918 3.04688 8.84375C3.04688 9.94832 3.94231 10.8438 5.04688 10.8438Z" fill="white"/>
<path d="M11.0469 4.84375H5.04688C2.83774 4.84375 1.04688 6.63461 1.04688 8.84375V8.84375C1.04688 11.0529 2.83774 12.8438 5.04688 12.8438H11.0469C13.256 12.8438 15.0469 11.0529 15.0469 8.84375V8.84375C15.0469 6.63461 13.256 4.84375 11.0469 4.84375Z" stroke="white" stroke-linecap="round" stroke-linejoin="round"/>
<path d="M5.04688 10.8438C6.15144 10.8438 7.04688 9.94832 7.04688 8.84375C7.04688 7.73918 6.15144 6.84375 5.04688 6.84375C3.94231 6.84375 3.04688 7.73918 3.04688 8.84375C3.04688 9.94832 3.94231 10.8438 5.04688 10.8438Z" stroke="white" stroke-linecap="round" stroke-linejoin="round"/>
</g>
<defs>
<clipPath id="clip0_1_431">
<rect width="16" height="16" fill="white" transform="translate(0.046875 0.84375)"/>
</clipPath>
</defs>
</svg>
