<svg width="25" height="25" viewBox="0 0 25 25" fill="none" xmlns="http://www.w3.org/2000/svg">
<g clip-path="url(#clip0_1_376)">
<path opacity="0.2" d="M3.82812 7.75H8.32812V4.75C8.32812 4.55109 8.24911 4.36032 8.10845 4.21967C7.9678 4.07902 7.77704 4 7.57812 4H4.57812C4.37921 4 4.18845 4.07902 4.0478 4.21967C3.90714 4.36032 3.82812 4.55109 3.82812 4.75V7.75Z" fill="black"/>
<path opacity="0.2" d="M8.32812 16.75H12.8281V4.75C12.8281 4.55109 12.7491 4.36032 12.6085 4.21967C12.4678 4.07902 12.277 4 12.0781 4H9.07812C8.87921 4 8.68845 4.07902 8.5478 4.21967C8.40714 4.36032 8.32812 4.55109 8.32812 4.75V16.75Z" fill="black"/>
<path opacity="0.2" d="M16.132 17.046L20.4787 15.8813L21.2551 18.7791C21.2806 18.8743 21.2871 18.9735 21.2743 19.0711C21.2614 19.1688 21.2294 19.2629 21.1802 19.3482C21.1309 19.4335 21.0654 19.5083 20.9872 19.5683C20.9091 19.6282 20.8199 19.6722 20.7248 19.6977L17.827 20.4741C17.7319 20.4996 17.6326 20.5061 17.535 20.4933C17.4373 20.4804 17.3432 20.4485 17.2579 20.3992C17.1726 20.35 17.0978 20.2844 17.0379 20.2063C16.9779 20.1281 16.9339 20.0389 16.9084 19.9438L16.132 17.046Z" fill="black"/>
<path opacity="0.2" d="M13.8026 8.35273L18.1493 7.18804L17.3728 4.29026C17.3473 4.19513 17.3033 4.10594 17.2434 4.0278C17.1834 3.94966 17.1087 3.8841 17.0234 3.83486C16.9381 3.78561 16.8439 3.75365 16.7463 3.74079C16.6486 3.72794 16.5494 3.73444 16.4542 3.75993L13.5565 4.53639C13.4613 4.56188 13.3721 4.60586 13.294 4.66582C13.2159 4.72578 13.1503 4.80054 13.1011 4.88583C13.0518 4.97113 13.0199 5.06529 13.007 5.16294C12.9941 5.26059 13.0006 5.35982 13.0261 5.45495L13.8026 8.35273Z" fill="black"/>
<path d="M7.57812 4H4.57812C4.16391 4 3.82812 4.33579 3.82812 4.75V19.75C3.82812 20.1642 4.16391 20.5 4.57812 20.5H7.57812C7.99234 20.5 8.32812 20.1642 8.32812 19.75V4.75C8.32812 4.33579 7.99234 4 7.57812 4Z" stroke="black" stroke-width="1.5" stroke-linecap="round" stroke-linejoin="round"/>
<path d="M3.82812 7.75H8.32812" stroke="black" stroke-width="1.5" stroke-linecap="round" stroke-linejoin="round"/>
<path d="M12.0781 4H9.07812C8.66391 4 8.32812 4.33579 8.32812 4.75V19.75C8.32812 20.1642 8.66391 20.5 9.07812 20.5H12.0781C12.4923 20.5 12.8281 20.1642 12.8281 19.75V4.75C12.8281 4.33579 12.4923 4 12.0781 4Z" stroke="black" stroke-width="1.5" stroke-linecap="round" stroke-linejoin="round"/>
<path d="M8.32812 16.75H12.8281" stroke="black" stroke-width="1.5" stroke-linecap="round" stroke-linejoin="round"/>
<path d="M16.4543 3.7599L13.5565 4.53635C13.1564 4.64356 12.9189 5.05481 13.0261 5.45491L16.9084 19.9438C17.0156 20.3439 17.4269 20.5813 17.827 20.4741L20.7248 19.6977C21.1249 19.5905 21.3623 19.1792 21.2551 18.7791L17.3728 4.29023C17.2656 3.89013 16.8544 3.65269 16.4543 3.7599Z" stroke="black" stroke-width="1.5" stroke-linecap="round" stroke-linejoin="round"/>
<path d="M16.132 17.046L20.4787 15.8813" stroke="black" stroke-width="1.5" stroke-linecap="round" stroke-linejoin="round"/>
<path d="M13.8026 8.35267L18.1493 7.18799" stroke="black" stroke-width="1.5" stroke-linecap="round" stroke-linejoin="round"/>
</g>
<defs>
<clipPath id="clip0_1_376">
<rect width="24" height="24" fill="white" transform="translate(0.078125 0.25)"/>
</clipPath>
</defs>
</svg>
