<svg width="32" height="33" viewBox="0 0 32 33" fill="none" xmlns="http://www.w3.org/2000/svg">
<g clip-path="url(#clip0_1_516)">
<path opacity="0.2" d="M10 16.0625C10 14.0847 10.5865 12.1513 11.6853 10.5068C12.7841 8.86231 14.3459 7.58059 16.1732 6.82371C18.0004 6.06683 20.0111 5.8688 21.9509 6.25465C23.8907 6.6405 25.6725 7.59291 27.0711 8.99144C28.4696 10.39 29.422 12.1718 29.8078 14.1116C30.1937 16.0514 29.9957 18.0621 29.2388 19.8893C28.4819 21.7166 27.2002 23.2784 25.5557 24.3772C23.9112 25.476 21.9778 26.0625 20 26.0625H9C8.00729 26.0615 7.02615 25.8494 6.12168 25.4403C5.21722 25.0311 4.41013 24.4343 3.75397 23.6894C3.09782 22.9444 2.60761 22.0685 2.31588 21.1196C2.02416 20.1707 1.93759 19.1706 2.06193 18.1858C2.18627 17.2009 2.51866 16.2537 3.03705 15.4071C3.55544 14.5605 4.24797 13.8338 5.06868 13.2754C5.88938 12.7169 6.81949 12.3393 7.79726 12.1678C8.77503 11.9963 9.7781 12.0347 10.7399 12.2804" fill="white"/>
<path d="M10 16.0625C10 14.0847 10.5865 12.1513 11.6853 10.5068C12.7841 8.86231 14.3459 7.58059 16.1732 6.82371C18.0004 6.06683 20.0111 5.8688 21.9509 6.25465C23.8907 6.6405 25.6725 7.59291 27.0711 8.99144C28.4696 10.39 29.422 12.1718 29.8078 14.1116C30.1937 16.0514 29.9957 18.0621 29.2388 19.8893C28.4819 21.7166 27.2002 23.2784 25.5557 24.3772C23.9112 25.476 21.9778 26.0625 20 26.0625H9C8.00729 26.0615 7.02615 25.8494 6.12168 25.4403C5.21722 25.0311 4.41013 24.4343 3.75397 23.6894C3.09782 22.9444 2.60761 22.0685 2.31588 21.1196C2.02416 20.1707 1.93759 19.1706 2.06193 18.1858C2.18627 17.2009 2.51866 16.2537 3.03705 15.4071C3.55544 14.5605 4.24797 13.8338 5.06868 13.2754C5.88938 12.7169 6.81949 12.3393 7.79726 12.1678C8.77503 11.9963 9.7781 12.0347 10.7399 12.2804" stroke="white" stroke-width="2" stroke-linecap="round" stroke-linejoin="round"/>
</g>
<defs>
<clipPath id="clip0_1_516">
<rect width="32" height="32" fill="white" transform="translate(0 0.0625)"/>
</clipPath>
</defs>
</svg>
