<svg width="25" height="25" viewBox="0 0 25 25" fill="none" xmlns="http://www.w3.org/2000/svg">
<g clip-path="url(#clip0_1_401)">
<path opacity="0.2" d="M12.0676 7C13.5173 7 14.6926 5.82475 14.6926 4.375C14.6926 2.92525 13.5173 1.75 12.0676 1.75C10.6178 1.75 9.44257 2.92525 9.44257 4.375C9.44257 5.82475 10.6178 7 12.0676 7Z" fill="black"/>
<path opacity="0.2" d="M14.5072 12.8795L17.7647 15.4131C17.9757 15.6241 18.2618 15.7426 18.5602 15.7426C18.8586 15.7426 19.1447 15.6241 19.3557 15.4131C19.5667 15.2022 19.6852 14.916 19.6852 14.6176C19.6852 14.3193 19.5667 14.0331 19.3557 13.8221L15.6434 9.04918C15.4695 8.87481 15.2628 8.73653 15.0353 8.64228C14.8077 8.54803 14.5638 8.49968 14.3176 8.5H9.81756C9.57129 8.49968 9.32738 8.54803 9.09985 8.64228C8.87232 8.73652 8.66566 8.87481 8.49174 9.04918L4.77943 13.8221C4.67496 13.9266 4.59209 14.0506 4.53556 14.1871C4.47902 14.3236 4.44992 14.4699 4.44992 14.6176C4.44992 14.7654 4.47902 14.9117 4.53556 15.0482C4.59209 15.1847 4.67496 15.3087 4.77943 15.4131C4.88389 15.5176 5.00791 15.6005 5.1444 15.657C5.28089 15.7135 5.42718 15.7426 5.57492 15.7426C5.72266 15.7426 5.86895 15.7135 6.00544 15.657C6.14193 15.6005 6.26595 15.5176 6.37042 15.4131L9.62791 12.8795L7.02788 21.0915C6.90179 21.3619 6.88828 21.6713 6.99033 21.9517C7.09237 22.2321 7.30162 22.4604 7.57203 22.5865C7.84245 22.7126 8.15188 22.7261 8.43225 22.6241C8.71263 22.522 8.94098 22.3128 9.06708 22.0424L12.0676 17.3201L15.0681 22.0424C15.1945 22.3121 15.4229 22.5207 15.703 22.6224C15.9831 22.724 16.2921 22.7103 16.5621 22.5844C16.8322 22.4585 17.0412 22.2306 17.1434 21.9507C17.2456 21.6708 17.2326 21.3618 17.1072 21.0915L14.5072 12.8795Z" fill="black"/>
<path d="M12.0676 7C13.5173 7 14.6926 5.82475 14.6926 4.375C14.6926 2.92525 13.5173 1.75 12.0676 1.75C10.6178 1.75 9.44257 2.92525 9.44257 4.375C9.44257 5.82475 10.6178 7 12.0676 7Z" stroke="black" stroke-width="1.5" stroke-linecap="round" stroke-linejoin="round"/>
<path d="M14.5072 12.8795L17.7647 15.4131C17.9757 15.6241 18.2618 15.7426 18.5602 15.7426C18.8586 15.7426 19.1447 15.6241 19.3557 15.4131C19.5667 15.2022 19.6852 14.916 19.6852 14.6176C19.6852 14.3193 19.5667 14.0331 19.3557 13.8221L15.6434 9.04918C15.4695 8.87481 15.2628 8.73653 15.0353 8.64228C14.8077 8.54803 14.5638 8.49968 14.3176 8.5H9.81756C9.57129 8.49968 9.32738 8.54803 9.09985 8.64228C8.87232 8.73652 8.66566 8.87481 8.49174 9.04918L4.77943 13.8221C4.67496 13.9266 4.59209 14.0506 4.53556 14.1871C4.47902 14.3236 4.44992 14.4699 4.44992 14.6176C4.44992 14.7654 4.47902 14.9117 4.53556 15.0482C4.59209 15.1847 4.67496 15.3087 4.77943 15.4131C4.88389 15.5176 5.00791 15.6005 5.1444 15.657C5.28089 15.7135 5.42718 15.7426 5.57492 15.7426C5.72266 15.7426 5.86895 15.7135 6.00544 15.657C6.14193 15.6005 6.26595 15.5176 6.37042 15.4131L9.62791 12.8795L7.02788 21.0915C6.90179 21.3619 6.88828 21.6713 6.99033 21.9517C7.09237 22.2321 7.30162 22.4604 7.57203 22.5865C7.84245 22.7126 8.15188 22.7261 8.43225 22.6241C8.71263 22.522 8.94098 22.3128 9.06708 22.0424L12.0676 17.3201L15.0681 22.0424C15.1945 22.3121 15.4229 22.5207 15.703 22.6224C15.9831 22.724 16.2921 22.7103 16.5621 22.5844C16.8322 22.4585 17.0412 22.2306 17.1434 21.9507C17.2456 21.6708 17.2326 21.3618 17.1072 21.0915L14.5072 12.8795Z" stroke="black" stroke-width="1.5" stroke-linecap="round" stroke-linejoin="round"/>
</g>
<defs>
<clipPath id="clip0_1_401">
<rect width="24" height="24" fill="white" transform="translate(0.078125 0.25)"/>
</clipPath>
</defs>
</svg>
