<svg width="30" height="31" viewBox="0 0 30 31" fill="none" xmlns="http://www.w3.org/2000/svg">
<g clip-path="url(#clip0_1_651)">
<path opacity="0.2" d="M6.38214 23.7585C5.30354 22.6799 6.01893 20.4154 5.46993 19.0886C4.90082 17.7131 2.8125 16.606 2.8125 15.1406C2.8125 13.6751 4.90084 12.5681 5.46994 11.1927C6.01894 9.86581 5.30354 7.60135 6.38214 6.52276C7.46073 5.44417 9.7252 6.15956 11.0521 5.61056C12.4275 5.04145 13.5346 2.95312 15 2.95312C16.4655 2.95312 17.5725 5.04146 18.948 5.61057C20.2748 6.15956 22.5393 5.44417 23.6179 6.52276C24.6965 7.60135 23.9811 9.86582 24.5301 11.1927C25.0992 12.5682 27.1875 13.6752 27.1875 15.1407C27.1875 16.6061 25.0992 17.7131 24.5301 19.0886C23.9811 20.4154 24.6965 22.6799 23.6179 23.7585C22.5393 24.8371 20.2748 24.1217 18.9479 24.6707C17.5725 25.2398 16.4654 27.3281 15 27.3281C13.5345 27.3281 12.4275 25.2398 11.052 24.6707C9.72519 24.1217 7.46073 24.8371 6.38214 23.7585Z" fill="white"/>
<path d="M6.38214 23.7585C5.30354 22.6799 6.01893 20.4154 5.46993 19.0886C4.90082 17.7131 2.8125 16.606 2.8125 15.1406C2.8125 13.6751 4.90084 12.5681 5.46994 11.1927C6.01894 9.86581 5.30354 7.60135 6.38214 6.52276C7.46073 5.44417 9.7252 6.15956 11.0521 5.61056C12.4275 5.04145 13.5346 2.95312 15 2.95312C16.4655 2.95312 17.5725 5.04146 18.948 5.61057C20.2748 6.15956 22.5393 5.44417 23.6179 6.52276C24.6965 7.60135 23.9811 9.86582 24.5301 11.1927C25.0992 12.5682 27.1875 13.6752 27.1875 15.1407C27.1875 16.6061 25.0992 17.7131 24.5301 19.0886C23.9811 20.4154 24.6965 22.6799 23.6179 23.7585C22.5393 24.8371 20.2748 24.1217 18.9479 24.6707C17.5725 25.2398 16.4654 27.3281 15 27.3281C13.5345 27.3281 12.4275 25.2398 11.052 24.6707C9.72519 24.1217 7.46073 24.8371 6.38214 23.7585Z" stroke="white" stroke-width="1.875" stroke-linecap="round" stroke-linejoin="round"/>
<path d="M20.1562 12.3281L13.2812 18.8906L9.84375 15.6094" stroke="white" stroke-width="1.875" stroke-linecap="round" stroke-linejoin="round"/>
</g>
<defs>
<clipPath id="clip0_1_651">
<rect width="30" height="30" fill="white" transform="translate(0 0.140625)"/>
</clipPath>
</defs>
</svg>
