<svg width="17" height="17" viewBox="0 0 17 17" fill="none" xmlns="http://www.w3.org/2000/svg">
<g clip-path="url(#clip0_1_345)">
<path opacity="0.2" d="M8.6564 14.75C11.9701 14.75 14.6564 12.0637 14.6564 8.75C14.6564 5.43629 11.9701 2.75 8.6564 2.75C5.34269 2.75 2.6564 5.43629 2.6564 8.75C2.6564 12.0637 5.34269 14.75 8.6564 14.75Z" fill="black"/>
<path d="M8.6564 14.75C11.9701 14.75 14.6564 12.0637 14.6564 8.75C14.6564 5.43629 11.9701 2.75 8.6564 2.75C5.34269 2.75 2.6564 5.43629 2.6564 8.75C2.6564 12.0637 5.34269 14.75 8.6564 14.75Z" stroke="black" stroke-linecap="round" stroke-linejoin="round"/>
<path d="M8.15637 8.25H8.65637V11.75H9.15637" stroke="black" stroke-linecap="round" stroke-linejoin="round"/>
<path d="M8.5314 6.75C8.94562 6.75 9.2814 6.41421 9.2814 6C9.2814 5.58579 8.94562 5.25 8.5314 5.25C8.11719 5.25 7.7814 5.58579 7.7814 6C7.7814 6.41421 8.11719 6.75 8.5314 6.75Z" fill="black"/>
</g>
<defs>
<clipPath id="clip0_1_345">
<rect width="16" height="16" fill="white" transform="translate(0.65625 0.75)"/>
</clipPath>
</defs>
</svg>
