<svg width="25" height="25" viewBox="0 0 25 25" fill="none" xmlns="http://www.w3.org/2000/svg">
<g clip-path="url(#clip0_1_484)">
<path opacity="0.2" d="M12.0676 7.09375C13.5173 7.09375 14.6926 5.9185 14.6926 4.46875C14.6926 3.019 13.5173 1.84375 12.0676 1.84375C10.6178 1.84375 9.44258 3.019 9.44258 4.46875C9.44258 5.9185 10.6178 7.09375 12.0676 7.09375Z" fill="white"/>
<path opacity="0.2" d="M14.5072 12.9733L17.7647 15.5069C17.9757 15.7179 18.2618 15.8364 18.5602 15.8364C18.8586 15.8364 19.1447 15.7179 19.3557 15.5069C19.5667 15.2959 19.6852 15.0098 19.6852 14.7114C19.6852 14.413 19.5667 14.1269 19.3557 13.9159L15.6434 9.14293C15.4695 8.96856 15.2628 8.83028 15.0353 8.73603C14.8078 8.64178 14.5639 8.59343 14.3176 8.59375H9.81758C9.5713 8.59343 9.32739 8.64178 9.09986 8.73603C8.87233 8.83027 8.66567 8.96856 8.49175 9.14293L4.77944 13.9159C4.67498 14.0204 4.59211 14.1444 4.53557 14.2809C4.47903 14.4174 4.44994 14.5637 4.44994 14.7114C4.44994 14.8591 4.47903 15.0054 4.53557 15.1419C4.59211 15.2784 4.67498 15.4024 4.77944 15.5069C4.88391 15.6114 5.00793 15.6942 5.14442 15.7508C5.28091 15.8073 5.4272 15.8364 5.57494 15.8364C5.72267 15.8364 5.86896 15.8073 6.00546 15.7508C6.14195 15.6942 6.26597 15.6114 6.37043 15.5069L9.62792 12.9733L7.0279 21.1852C6.9018 21.4556 6.88829 21.7651 6.99034 22.0454C7.09239 22.3258 7.30164 22.5542 7.57205 22.6803C7.84246 22.8063 8.15189 22.8199 8.43227 22.7178C8.71264 22.6158 8.941 22.4065 9.06709 22.1361L12.0676 17.4138L15.0681 22.1361C15.1945 22.4059 15.4229 22.6145 15.703 22.7161C15.9831 22.8177 16.2921 22.8041 16.5621 22.6782C16.8322 22.5522 17.0412 22.3243 17.1434 22.0444C17.2456 21.7645 17.2326 21.4555 17.1073 21.1852L14.5072 12.9733Z" fill="white"/>
<path d="M12.0676 7.09375C13.5173 7.09375 14.6926 5.9185 14.6926 4.46875C14.6926 3.019 13.5173 1.84375 12.0676 1.84375C10.6178 1.84375 9.44258 3.019 9.44258 4.46875C9.44258 5.9185 10.6178 7.09375 12.0676 7.09375Z" stroke="white" stroke-width="1.5" stroke-linecap="round" stroke-linejoin="round"/>
<path d="M14.5072 12.9733L17.7647 15.5069C17.9757 15.7179 18.2618 15.8364 18.5602 15.8364C18.8586 15.8364 19.1447 15.7179 19.3557 15.5069C19.5667 15.2959 19.6852 15.0098 19.6852 14.7114C19.6852 14.413 19.5667 14.1269 19.3557 13.9159L15.6434 9.14293C15.4695 8.96856 15.2628 8.83028 15.0353 8.73603C14.8078 8.64178 14.5639 8.59343 14.3176 8.59375H9.81758C9.5713 8.59343 9.32739 8.64178 9.09986 8.73603C8.87233 8.83027 8.66567 8.96856 8.49175 9.14293L4.77944 13.9159C4.67498 14.0204 4.59211 14.1444 4.53557 14.2809C4.47903 14.4174 4.44994 14.5637 4.44994 14.7114C4.44994 14.8591 4.47903 15.0054 4.53557 15.1419C4.59211 15.2784 4.67498 15.4024 4.77944 15.5069C4.88391 15.6114 5.00793 15.6942 5.14442 15.7508C5.28091 15.8073 5.4272 15.8364 5.57494 15.8364C5.72267 15.8364 5.86896 15.8073 6.00546 15.7508C6.14195 15.6942 6.26597 15.6114 6.37043 15.5069L9.62792 12.9733L7.0279 21.1852C6.9018 21.4556 6.88829 21.7651 6.99034 22.0454C7.09239 22.3258 7.30164 22.5542 7.57205 22.6803C7.84246 22.8063 8.15189 22.8199 8.43227 22.7178C8.71264 22.6158 8.941 22.4065 9.06709 22.1361L12.0676 17.4138L15.0681 22.1361C15.1945 22.4059 15.4229 22.6145 15.703 22.7161C15.9831 22.8177 16.2921 22.8041 16.5621 22.6782C16.8322 22.5522 17.0412 22.3243 17.1434 22.0444C17.2456 21.7645 17.2326 21.4555 17.1073 21.1852L14.5072 12.9733Z" stroke="white" stroke-width="1.5" stroke-linecap="round" stroke-linejoin="round"/>
</g>
<defs>
<clipPath id="clip0_1_484">
<rect width="24" height="24" fill="white" transform="translate(0.078125 0.34375)"/>
</clipPath>
</defs>
</svg>
