<svg width="25" height="25" viewBox="0 0 25 25" fill="none" xmlns="http://www.w3.org/2000/svg">
<g clip-path="url(#clip0_1_450)">
<path opacity="0.2" d="M19.5781 8.59375H4.57812C4.16391 8.59375 3.82812 8.92954 3.82812 9.34375V19.8438C3.82812 20.258 4.16391 20.5938 4.57812 20.5938H19.5781C19.9923 20.5938 20.3281 20.258 20.3281 19.8438V9.34375C20.3281 8.92954 19.9923 8.59375 19.5781 8.59375Z" fill="white"/>
<path d="M19.5781 8.59375H4.57812C4.16391 8.59375 3.82812 8.92954 3.82812 9.34375V19.8438C3.82812 20.258 4.16391 20.5938 4.57812 20.5938H19.5781C19.9923 20.5938 20.3281 20.258 20.3281 19.8438V9.34375C20.3281 8.92954 19.9923 8.59375 19.5781 8.59375Z" stroke="white" stroke-width="1.5" stroke-linecap="round" stroke-linejoin="round"/>
<path d="M8.70312 8.59375V5.21875C8.70313 4.32364 9.0587 3.4652 9.69164 2.83226C10.3246 2.19933 11.183 1.84375 12.0781 1.84375C12.9732 1.84375 13.8317 2.19933 14.4646 2.83226C15.0975 3.4652 15.4531 4.32364 15.4531 5.21875V8.59375" stroke="white" stroke-width="1.5" stroke-linecap="round" stroke-linejoin="round"/>
<path d="M12.0781 15.7188C12.6994 15.7188 13.2031 15.2151 13.2031 14.5938C13.2031 13.9724 12.6994 13.4688 12.0781 13.4688C11.4568 13.4688 10.9531 13.9724 10.9531 14.5938C10.9531 15.2151 11.4568 15.7188 12.0781 15.7188Z" fill="white"/>
</g>
<defs>
<clipPath id="clip0_1_450">
<rect width="24" height="24" fill="white" transform="translate(0.078125 0.34375)"/>
</clipPath>
</defs>
</svg>
