<svg width="25" height="25" viewBox="0 0 25 25" fill="none" xmlns="http://www.w3.org/2000/svg">
<g clip-path="url(#clip0_1_459)">
<path opacity="0.2" d="M3.82812 7.84375H8.32812V4.84375C8.32812 4.64484 8.24911 4.45407 8.10845 4.31342C7.9678 4.17277 7.77704 4.09375 7.57812 4.09375H4.57812C4.37921 4.09375 4.18845 4.17277 4.0478 4.31342C3.90714 4.45407 3.82812 4.64484 3.82812 4.84375V7.84375Z" fill="white"/>
<path opacity="0.2" d="M8.32812 16.8438H12.8281V4.84375C12.8281 4.64484 12.7491 4.45407 12.6085 4.31342C12.4678 4.17277 12.277 4.09375 12.0781 4.09375H9.07812C8.87921 4.09375 8.68845 4.17277 8.5478 4.31342C8.40714 4.45407 8.32812 4.64484 8.32812 4.84375V16.8438Z" fill="white"/>
<path opacity="0.2" d="M16.132 17.1398L20.4786 15.9751L21.2551 18.8729C21.2806 18.968 21.2871 19.0672 21.2742 19.1649C21.2614 19.2625 21.2294 19.3567 21.1802 19.442C21.1309 19.5273 21.0654 19.602 20.9872 19.662C20.9091 19.722 20.8199 19.7659 20.7248 19.7914L17.827 20.5679C17.7319 20.5934 17.6326 20.5999 17.535 20.587C17.4373 20.5742 17.3432 20.5422 17.2579 20.493C17.1726 20.4437 17.0978 20.3782 17.0379 20.3C16.9779 20.2219 16.9339 20.1327 16.9084 20.0376L16.132 17.1398Z" fill="white"/>
<path opacity="0.2" d="M13.8026 8.44648L18.1493 7.28179L17.3728 4.38401C17.3473 4.28888 17.3033 4.19969 17.2434 4.12155C17.1834 4.04341 17.1087 3.97785 17.0234 3.92861C16.9381 3.87936 16.8439 3.8474 16.7463 3.83454C16.6486 3.82169 16.5494 3.82819 16.4543 3.85368L13.5565 4.63014C13.4613 4.65563 13.3722 4.69961 13.294 4.75957C13.2159 4.81953 13.1503 4.89429 13.1011 4.97958C13.0518 5.06488 13.0199 5.15904 13.007 5.25669C12.9941 5.35434 13.0007 5.45357 13.0261 5.5487L13.8026 8.44648Z" fill="white"/>
<path d="M7.57812 4.09375H4.57812C4.16391 4.09375 3.82812 4.42954 3.82812 4.84375V19.8438C3.82812 20.258 4.16391 20.5938 4.57812 20.5938H7.57812C7.99234 20.5938 8.32812 20.258 8.32812 19.8438V4.84375C8.32812 4.42954 7.99234 4.09375 7.57812 4.09375Z" stroke="white" stroke-width="1.5" stroke-linecap="round" stroke-linejoin="round"/>
<path d="M3.82812 7.84375H8.32812" stroke="white" stroke-width="1.5" stroke-linecap="round" stroke-linejoin="round"/>
<path d="M12.0781 4.09375H9.07812C8.66391 4.09375 8.32812 4.42954 8.32812 4.84375V19.8438C8.32812 20.258 8.66391 20.5938 9.07812 20.5938H12.0781C12.4923 20.5938 12.8281 20.258 12.8281 19.8438V4.84375C12.8281 4.42954 12.4923 4.09375 12.0781 4.09375Z" stroke="white" stroke-width="1.5" stroke-linecap="round" stroke-linejoin="round"/>
<path d="M8.32812 16.8438H12.8281" stroke="white" stroke-width="1.5" stroke-linecap="round" stroke-linejoin="round"/>
<path d="M16.4543 3.85365L13.5565 4.6301C13.1564 4.73731 12.9189 5.14856 13.0261 5.54866L16.9084 20.0376C17.0156 20.4377 17.4269 20.6751 17.827 20.5679L20.7248 19.7914C21.1249 19.6842 21.3623 19.273 21.2551 18.8729L17.3728 4.38398C17.2656 3.98388 16.8544 3.74644 16.4543 3.85365Z" stroke="white" stroke-width="1.5" stroke-linecap="round" stroke-linejoin="round"/>
<path d="M16.132 17.1398L20.4786 15.9751" stroke="white" stroke-width="1.5" stroke-linecap="round" stroke-linejoin="round"/>
<path d="M13.8026 8.44642L18.1493 7.28174" stroke="white" stroke-width="1.5" stroke-linecap="round" stroke-linejoin="round"/>
</g>
<defs>
<clipPath id="clip0_1_459">
<rect width="24" height="24" fill="white" transform="translate(0.078125 0.34375)"/>
</clipPath>
</defs>
</svg>
