<svg width="25" height="25" viewBox="0 0 25 25" fill="none" xmlns="http://www.w3.org/2000/svg">
<g clip-path="url(#clip0_1_367)">
<path opacity="0.2" d="M19.5781 8.5H4.57812C4.16391 8.5 3.82812 8.83579 3.82812 9.25V19.75C3.82812 20.1642 4.16391 20.5 4.57812 20.5H19.5781C19.9923 20.5 20.3281 20.1642 20.3281 19.75V9.25C20.3281 8.83579 19.9923 8.5 19.5781 8.5Z" fill="black"/>
<path d="M19.5781 8.5H4.57812C4.16391 8.5 3.82812 8.83579 3.82812 9.25V19.75C3.82812 20.1642 4.16391 20.5 4.57812 20.5H19.5781C19.9923 20.5 20.3281 20.1642 20.3281 19.75V9.25C20.3281 8.83579 19.9923 8.5 19.5781 8.5Z" stroke="black" stroke-width="1.5" stroke-linecap="round" stroke-linejoin="round"/>
<path d="M8.70312 8.5V5.125C8.70313 4.22989 9.0587 3.37145 9.69164 2.73851C10.3246 2.10558 11.183 1.75 12.0781 1.75C12.9732 1.75 13.8317 2.10558 14.4646 2.73851C15.0975 3.37145 15.4531 4.22989 15.4531 5.125V8.5" stroke="black" stroke-width="1.5" stroke-linecap="round" stroke-linejoin="round"/>
<path d="M12.0781 15.625C12.6994 15.625 13.2031 15.1213 13.2031 14.5C13.2031 13.8787 12.6994 13.375 12.0781 13.375C11.4568 13.375 10.9531 13.8787 10.9531 14.5C10.9531 15.1213 11.4568 15.625 12.0781 15.625Z" fill="black"/>
</g>
<defs>
<clipPath id="clip0_1_367">
<rect width="24" height="24" fill="white" transform="translate(0.078125 0.25)"/>
</clipPath>
</defs>
</svg>
