<svg width="31" height="31" viewBox="0 0 31 31" fill="none" xmlns="http://www.w3.org/2000/svg">
<g clip-path="url(#clip0_1_143)">
<path d="M18.6875 9.46875C20.2408 9.46875 21.5 8.20955 21.5 6.65625C21.5 5.10295 20.2408 3.84375 18.6875 3.84375C17.1342 3.84375 15.875 5.10295 15.875 6.65625C15.875 8.20955 17.1342 9.46875 18.6875 9.46875Z" stroke="white" stroke-width="1.875" stroke-linecap="round" stroke-linejoin="round"/>
<path d="M7.4375 11.9942C7.4375 11.9942 11.1875 8.53121 16.8125 12.9317C22.7268 17.5585 26.1875 15.7442 26.1875 15.7442" stroke="white" stroke-width="1.875" stroke-linecap="round" stroke-linejoin="round"/>
<path d="M16.7042 12.8478C16.1953 15.239 12.7764 24.3463 4.625 23.5312" stroke="white" stroke-width="1.875" stroke-linecap="round" stroke-linejoin="round"/>
<path d="M13.8412 18.9797C15.9299 19.4261 21.5 21.1875 21.5 27.2813" stroke="white" stroke-width="1.875" stroke-linecap="round" stroke-linejoin="round"/>
</g>
<defs>
<clipPath id="clip0_1_143">
<rect width="30" height="30" fill="white" transform="translate(0.875 0.09375)"/>
</clipPath>
</defs>
</svg>
