<svg width="32" height="33" viewBox="0 0 32 33" fill="none" xmlns="http://www.w3.org/2000/svg">
<g clip-path="url(#clip0_112_250)">
<path opacity="0.2" d="M16 3.97998C16 3.97998 28.5 11.98 28.5 18.48C28.5 19.7166 28.1472 20.9275 27.4831 21.9707C26.819 23.0138 25.8711 23.8459 24.7507 24.3692C23.6303 24.8925 22.3839 25.0854 21.1577 24.9252C19.9315 24.765 18.7765 24.2583 17.8281 23.4647L20 29.98H12L14.1719 23.4647C13.2235 24.2583 12.0685 24.765 10.8423 24.9252C9.61613 25.0854 8.36969 24.8925 7.24929 24.3692C6.12889 23.8459 5.18101 23.0138 4.51691 21.9707C3.8528 20.9275 3.50003 19.7166 3.5 18.48C3.5 11.98 16 3.97998 16 3.97998Z" fill="#FF8585"/>
<path d="M16 3.97998C16 3.97998 28.5 11.98 28.5 18.48C28.5 19.7166 28.1472 20.9275 27.4831 21.9707C26.819 23.0138 25.8711 23.8459 24.7507 24.3692C23.6303 24.8925 22.3839 25.0854 21.1577 24.9252C19.9315 24.765 18.7765 24.2583 17.8281 23.4647L20 29.98H12L14.1719 23.4647C13.2235 24.2583 12.0685 24.765 10.8423 24.9252C9.61613 25.0854 8.36969 24.8925 7.24929 24.3692C6.12889 23.8459 5.18101 23.0138 4.51691 21.9707C3.8528 20.9275 3.50003 19.7166 3.5 18.48C3.5 11.98 16 3.97998 16 3.97998Z" stroke="#FF8585" stroke-width="2" stroke-linecap="round" stroke-linejoin="round"/>
</g>
<defs>
<clipPath id="clip0_112_250">
<rect width="32" height="32" fill="white" transform="translate(0 0.97998)"/>
</clipPath>
</defs>
</svg>
