<svg width="30" height="31" viewBox="0 0 30 31" fill="none" xmlns="http://www.w3.org/2000/svg">
<g clip-path="url(#clip0_1_682)">
<path opacity="0.2" d="M26.5534 8.55648C26.4802 8.2693 26.3396 8.0037 26.1433 7.78168C25.947 7.55966 25.7006 7.38761 25.4245 7.27978C21.5014 5.77219 15 5.81359 15 5.81359C15 5.81359 8.49861 5.77219 4.57547 7.27978C4.29942 7.38761 4.05304 7.55966 3.85673 7.78167C3.66042 8.00369 3.51984 8.26928 3.44662 8.55646C3.17276 9.60796 2.8125 11.6539 2.8125 15.1408C2.8125 18.6278 3.17276 20.6737 3.44662 21.7252C3.51982 22.0124 3.6604 22.278 3.85671 22.5C4.05302 22.722 4.29941 22.8941 4.57547 23.0019C8.49855 24.5095 15 24.4681 15 24.4681C15 24.4681 21.5014 24.5095 25.4245 23.0019C25.7006 22.8941 25.947 22.722 26.1433 22.5C26.3396 22.278 26.4802 22.0124 26.5534 21.7252C26.8272 20.6737 27.1875 18.6278 27.1875 15.1408C27.1875 11.6539 26.8272 9.60796 26.5534 8.55648ZM13.125 18.8908V11.3908L18.75 15.1408L13.125 18.8908Z" fill="white"/>
<path d="M18.75 15.1406L13.125 11.3906V18.8906L18.75 15.1406Z" stroke="white" stroke-width="1.875" stroke-linecap="round" stroke-linejoin="round"/>
<path d="M2.8125 15.1408C2.8125 18.6278 3.17275 20.6737 3.44661 21.7252C3.51982 22.0124 3.6604 22.278 3.85671 22.5C4.05302 22.722 4.2994 22.8941 4.57546 23.0019C8.49853 24.5095 15 24.4681 15 24.4681C15 24.4681 21.5014 24.5095 25.4245 23.0019C25.7006 22.8941 25.9469 22.722 26.1433 22.5C26.3396 22.278 26.4802 22.0124 26.5534 21.7252C26.8272 20.6737 27.1875 18.6278 27.1875 15.1408C27.1875 11.6539 26.8272 9.60797 26.5534 8.55646C26.4802 8.26929 26.3396 8.00368 26.1433 7.78167C25.947 7.55965 25.7006 7.3876 25.4245 7.27978C21.5015 5.77219 15 5.81359 15 5.81359C15 5.81359 8.49861 5.77219 4.57549 7.27976C4.29944 7.38758 4.05305 7.55963 3.85674 7.78165C3.66043 8.00367 3.51984 8.26926 3.44664 8.55644C3.17277 9.60794 2.8125 11.6539 2.8125 15.1408Z" stroke="white" stroke-width="1.875" stroke-linecap="round" stroke-linejoin="round"/>
</g>
<defs>
<clipPath id="clip0_1_682">
<rect width="30" height="30" fill="white" transform="translate(0 0.140625)"/>
</clipPath>
</defs>
</svg>
